<mxfile host="65bd71144e">
    <diagram id="AA2Y2U_JIJL0sAKGaOSc" name="Page-1">
        <mxGraphModel dx="855" dy="537" grid="1" gridSize="10" guides="1" tooltips="1" connect="1" arrows="1" fold="1" page="1" pageScale="1" pageWidth="827" pageHeight="1169" math="0" shadow="0">
            <root>
                <mxCell id="0"/>
                <mxCell id="1" parent="0"/>
                <mxCell id="6" style="edgeStyle=none;html=1;exitX=0;exitY=1;exitDx=0;exitDy=0;entryX=0;entryY=0.5;entryDx=0;entryDy=0;" edge="1" parent="1" source="3" target="4">
                    <mxGeometry relative="1" as="geometry">
                        <Array as="points">
                            <mxPoint x="160" y="150"/>
                        </Array>
                    </mxGeometry>
                </mxCell>
                <mxCell id="19" style="edgeStyle=none;html=1;exitX=0;exitY=1;exitDx=0;exitDy=0;entryX=0;entryY=0.5;entryDx=0;entryDy=0;" edge="1" parent="1" source="3" target="8">
                    <mxGeometry relative="1" as="geometry">
                        <Array as="points">
                            <mxPoint x="160" y="250"/>
                        </Array>
                    </mxGeometry>
                </mxCell>
                <mxCell id="31" style="edgeStyle=none;html=1;exitX=0;exitY=1;exitDx=0;exitDy=0;entryX=0;entryY=0.5;entryDx=0;entryDy=0;" edge="1" parent="1" source="3" target="20">
                    <mxGeometry relative="1" as="geometry">
                        <Array as="points">
                            <mxPoint x="160" y="550"/>
                        </Array>
                    </mxGeometry>
                </mxCell>
                <mxCell id="3" value="&lt;b&gt;App Module:&lt;/b&gt;" style="rounded=0;whiteSpace=wrap;html=1;align=left;spacingLeft=5;spacingBottom=5;spacingRight=5;spacingTop=5;" vertex="1" parent="1">
                    <mxGeometry x="160" y="80" width="200" height="40" as="geometry"/>
                </mxCell>
                <mxCell id="7" style="edgeStyle=none;html=1;exitX=0;exitY=1;exitDx=0;exitDy=0;entryX=0;entryY=0.5;entryDx=0;entryDy=0;" edge="1" parent="1" source="4" target="5">
                    <mxGeometry relative="1" as="geometry">
                        <Array as="points">
                            <mxPoint x="200" y="200"/>
                        </Array>
                    </mxGeometry>
                </mxCell>
                <mxCell id="4" value="Componets:" style="rounded=0;whiteSpace=wrap;html=1;align=left;spacingLeft=5;spacingBottom=5;spacingRight=5;spacingTop=5;" vertex="1" parent="1">
                    <mxGeometry x="200" y="130" width="200" height="40" as="geometry"/>
                </mxCell>
                <mxCell id="5" value="Sign In" style="rounded=0;whiteSpace=wrap;html=1;align=left;spacingLeft=5;spacingBottom=5;spacingRight=5;spacingTop=5;fontStyle=2" vertex="1" parent="1">
                    <mxGeometry x="240" y="180" width="200" height="40" as="geometry"/>
                </mxCell>
                <mxCell id="14" style="edgeStyle=none;html=1;exitX=0;exitY=1;exitDx=0;exitDy=0;entryX=0;entryY=0.5;entryDx=0;entryDy=0;" edge="1" parent="1" source="8" target="9">
                    <mxGeometry relative="1" as="geometry">
                        <Array as="points">
                            <mxPoint x="200" y="300"/>
                        </Array>
                    </mxGeometry>
                </mxCell>
                <mxCell id="15" style="edgeStyle=none;html=1;exitX=0;exitY=1;exitDx=0;exitDy=0;entryX=0;entryY=0.5;entryDx=0;entryDy=0;" edge="1" parent="1" source="8" target="10">
                    <mxGeometry relative="1" as="geometry">
                        <Array as="points">
                            <mxPoint x="200" y="350"/>
                        </Array>
                    </mxGeometry>
                </mxCell>
                <mxCell id="16" style="edgeStyle=none;html=1;exitX=0;exitY=1;exitDx=0;exitDy=0;entryX=0;entryY=0.5;entryDx=0;entryDy=0;" edge="1" parent="1" source="8" target="11">
                    <mxGeometry relative="1" as="geometry">
                        <Array as="points">
                            <mxPoint x="200" y="400"/>
                        </Array>
                    </mxGeometry>
                </mxCell>
                <mxCell id="17" style="edgeStyle=none;html=1;exitX=0;exitY=1;exitDx=0;exitDy=0;entryX=0;entryY=0.5;entryDx=0;entryDy=0;" edge="1" parent="1" source="8" target="12">
                    <mxGeometry relative="1" as="geometry">
                        <Array as="points">
                            <mxPoint x="200" y="450"/>
                        </Array>
                    </mxGeometry>
                </mxCell>
                <mxCell id="18" style="edgeStyle=none;html=1;exitX=0;exitY=1;exitDx=0;exitDy=0;entryX=0;entryY=0.5;entryDx=0;entryDy=0;" edge="1" parent="1" source="8" target="13">
                    <mxGeometry relative="1" as="geometry">
                        <Array as="points">
                            <mxPoint x="200" y="500"/>
                        </Array>
                    </mxGeometry>
                </mxCell>
                <mxCell id="8" value="Interfaces:" style="rounded=0;whiteSpace=wrap;html=1;align=left;spacingLeft=5;spacingBottom=5;spacingRight=5;spacingTop=5;" vertex="1" parent="1">
                    <mxGeometry x="200" y="230" width="200" height="40" as="geometry"/>
                </mxCell>
                <mxCell id="9" value="User" style="rounded=0;whiteSpace=wrap;html=1;align=left;spacingLeft=5;spacingBottom=5;spacingRight=5;spacingTop=5;fontStyle=2" vertex="1" parent="1">
                    <mxGeometry x="240" y="280" width="200" height="40" as="geometry"/>
                </mxCell>
                <mxCell id="10" value="Email" style="rounded=0;whiteSpace=wrap;html=1;align=left;spacingLeft=5;spacingBottom=5;spacingRight=5;spacingTop=5;fontStyle=2" vertex="1" parent="1">
                    <mxGeometry x="240" y="330" width="200" height="40" as="geometry"/>
                </mxCell>
                <mxCell id="11" value="Image" style="rounded=0;whiteSpace=wrap;html=1;align=left;spacingLeft=5;spacingBottom=5;spacingRight=5;spacingTop=5;fontStyle=2" vertex="1" parent="1">
                    <mxGeometry x="240" y="380" width="200" height="40" as="geometry"/>
                </mxCell>
                <mxCell id="12" value="Request" style="rounded=0;whiteSpace=wrap;html=1;align=left;spacingLeft=5;spacingBottom=5;spacingRight=5;spacingTop=5;fontStyle=2" vertex="1" parent="1">
                    <mxGeometry x="240" y="430" width="200" height="40" as="geometry"/>
                </mxCell>
                <mxCell id="13" value="Link" style="rounded=0;whiteSpace=wrap;html=1;align=left;spacingLeft=5;spacingBottom=5;spacingRight=5;spacingTop=5;fontStyle=2" vertex="1" parent="1">
                    <mxGeometry x="240" y="480" width="200" height="40" as="geometry"/>
                </mxCell>
                <mxCell id="22" style="edgeStyle=none;html=1;exitX=0;exitY=1;exitDx=0;exitDy=0;entryX=0;entryY=0.5;entryDx=0;entryDy=0;" edge="1" parent="1" source="20" target="21">
                    <mxGeometry relative="1" as="geometry">
                        <Array as="points">
                            <mxPoint x="200" y="600"/>
                        </Array>
                    </mxGeometry>
                </mxCell>
                <mxCell id="37" style="edgeStyle=none;html=1;exitX=0;exitY=1;exitDx=0;exitDy=0;entryX=0;entryY=0.5;entryDx=0;entryDy=0;" edge="1" parent="1" source="20" target="32">
                    <mxGeometry relative="1" as="geometry">
                        <Array as="points">
                            <mxPoint x="200" y="850"/>
                        </Array>
                    </mxGeometry>
                </mxCell>
                <mxCell id="20" value="Modules:" style="rounded=0;whiteSpace=wrap;html=1;align=left;spacingLeft=5;spacingBottom=5;spacingRight=5;spacingTop=5;" vertex="1" parent="1">
                    <mxGeometry x="200" y="530" width="200" height="40" as="geometry"/>
                </mxCell>
                <mxCell id="24" style="edgeStyle=none;html=1;exitX=0;exitY=1;exitDx=0;exitDy=0;entryX=0;entryY=0.5;entryDx=0;entryDy=0;" edge="1" parent="1" source="21" target="23">
                    <mxGeometry relative="1" as="geometry">
                        <Array as="points">
                            <mxPoint x="240" y="650"/>
                        </Array>
                    </mxGeometry>
                </mxCell>
                <mxCell id="30" style="edgeStyle=none;html=1;exitX=0;exitY=0.75;exitDx=0;exitDy=0;entryX=0;entryY=0.5;entryDx=0;entryDy=0;" edge="1" parent="1" source="21" target="29">
                    <mxGeometry relative="1" as="geometry">
                        <Array as="points">
                            <mxPoint x="240" y="800"/>
                        </Array>
                    </mxGeometry>
                </mxCell>
                <mxCell id="21" value="Administrator:" style="rounded=0;whiteSpace=wrap;html=1;align=left;spacingLeft=5;spacingBottom=5;spacingRight=5;spacingTop=5;" vertex="1" parent="1">
                    <mxGeometry x="240" y="580" width="200" height="40" as="geometry"/>
                </mxCell>
                <mxCell id="26" style="edgeStyle=none;html=1;exitX=0;exitY=1;exitDx=0;exitDy=0;entryX=0;entryY=0.5;entryDx=0;entryDy=0;" edge="1" parent="1" source="23" target="25">
                    <mxGeometry relative="1" as="geometry">
                        <Array as="points">
                            <mxPoint x="280" y="700"/>
                        </Array>
                    </mxGeometry>
                </mxCell>
                <mxCell id="28" style="edgeStyle=none;html=1;exitX=0;exitY=1;exitDx=0;exitDy=0;entryX=0;entryY=0.5;entryDx=0;entryDy=0;" edge="1" parent="1" source="23" target="27">
                    <mxGeometry relative="1" as="geometry">
                        <Array as="points">
                            <mxPoint x="280" y="750"/>
                        </Array>
                    </mxGeometry>
                </mxCell>
                <mxCell id="23" value="Components:" style="rounded=0;whiteSpace=wrap;html=1;align=left;spacingLeft=5;spacingBottom=5;spacingRight=5;spacingTop=5;" vertex="1" parent="1">
                    <mxGeometry x="280" y="630" width="200" height="40" as="geometry"/>
                </mxCell>
                <mxCell id="25" value="Table" style="rounded=0;whiteSpace=wrap;html=1;align=left;spacingLeft=5;spacingBottom=5;spacingRight=5;spacingTop=5;fontStyle=2" vertex="1" parent="1">
                    <mxGeometry x="320" y="680" width="200" height="40" as="geometry"/>
                </mxCell>
                <mxCell id="27" value="Row" style="rounded=0;whiteSpace=wrap;html=1;align=left;spacingLeft=5;spacingBottom=5;spacingRight=5;spacingTop=5;fontStyle=2" vertex="1" parent="1">
                    <mxGeometry x="320" y="730" width="200" height="40" as="geometry"/>
                </mxCell>
                <mxCell id="29" value="Guard" style="rounded=0;whiteSpace=wrap;html=1;align=left;spacingLeft=5;spacingBottom=5;spacingRight=5;spacingTop=5;fontStyle=2" vertex="1" parent="1">
                    <mxGeometry x="280" y="780" width="200" height="40" as="geometry"/>
                </mxCell>
                <mxCell id="36" style="edgeStyle=none;html=1;exitX=0;exitY=1;exitDx=0;exitDy=0;entryX=0;entryY=0.5;entryDx=0;entryDy=0;" edge="1" parent="1" source="32" target="33">
                    <mxGeometry relative="1" as="geometry">
                        <Array as="points">
                            <mxPoint x="240" y="900"/>
                        </Array>
                    </mxGeometry>
                </mxCell>
                <mxCell id="32" value="Guest:" style="rounded=0;whiteSpace=wrap;html=1;align=left;spacingLeft=5;spacingBottom=5;spacingRight=5;spacingTop=5;" vertex="1" parent="1">
                    <mxGeometry x="240" y="830" width="200" height="40" as="geometry"/>
                </mxCell>
                <mxCell id="35" style="edgeStyle=none;html=1;exitX=0;exitY=1;exitDx=0;exitDy=0;entryX=0;entryY=0.5;entryDx=0;entryDy=0;" edge="1" parent="1" source="33" target="34">
                    <mxGeometry relative="1" as="geometry">
                        <Array as="points">
                            <mxPoint x="280" y="950"/>
                        </Array>
                    </mxGeometry>
                </mxCell>
                <mxCell id="33" value="Components:" style="rounded=0;whiteSpace=wrap;html=1;align=left;spacingLeft=5;spacingBottom=5;spacingRight=5;spacingTop=5;" vertex="1" parent="1">
                    <mxGeometry x="280" y="880" width="200" height="40" as="geometry"/>
                </mxCell>
                <mxCell id="34" value="Request Details" style="rounded=0;whiteSpace=wrap;html=1;align=left;spacingLeft=5;spacingBottom=5;spacingRight=5;spacingTop=5;fontStyle=2" vertex="1" parent="1">
                    <mxGeometry x="320" y="930" width="200" height="40" as="geometry"/>
                </mxCell>
            </root>
        </mxGraphModel>
    </diagram>
</mxfile>